inDegrees=no
num_controls=7
num_derivatives=13
num_iterations=98
num_multipliers=7
num_parameters=0
num_slacks=7
num_states=26
objective=0.477100
objective_accelerations=0.043550
objective_balance=0.003714
objective_effort=0.040351
objective_height=0.383806
objective_ligament=0.005679
solver_duration=1335.512810
status=Solve_Succeeded
success=true
DataType=double
version=3
OpenSimVersion=4.5
endheader
time	/jointset/ground_pelvis/pelvis_tilt/value	/jointset/ground_pelvis/pelvis_tx/value	/jointset/ground_pelvis/pelvis_ty/value	/jointset/hip_l/hip_flexion_l/value	/jointset/hip_l/hip_adduction_l/value	/jointset/hip_l/hip_rotation_l/value	/jointset/back/lumbar_extension/value	/jointset/patellofemoral_l/patellar_flexion_l/value	/jointset/knee_l/knee_flexion_l/value	/jointset/knee_l/knee_adduction_l/value	/jointset/knee_l/knee_rotation_l/value	/jointset/ankle_l/ankle_angle_l/value	/jointset/subtalar_l/subtalar_angle_l/value	/jointset/ground_pelvis/pelvis_tilt/speed	/jointset/ground_pelvis/pelvis_tx/speed	/jointset/ground_pelvis/pelvis_ty/speed	/jointset/hip_l/hip_flexion_l/speed	/jointset/hip_l/hip_adduction_l/speed	/jointset/hip_l/hip_rotation_l/speed	/jointset/back/lumbar_extension/speed	/jointset/patellofemoral_l/patellar_flexion_l/speed	/jointset/knee_l/knee_flexion_l/speed	/jointset/knee_l/knee_adduction_l/speed	/jointset/knee_l/knee_rotation_l/speed	/jointset/ankle_l/ankle_angle_l/speed	/jointset/subtalar_l/subtalar_angle_l/speed	/forceset/tau_hip_flexion_l	/forceset/tau_hip_adduction_l	/forceset/tau_hip_rotation_l	/forceset/tau_knee_flexion_l	/forceset/tau_ankle_angle_l	/forceset/tau_subtalar_angle_l	/forceset/tau_lumbar_extension	lambda_cid13_p0	lambda_cid13_p1	lambda_cid13_p2	lambda_cid13_p3	lambda_cid13_p4	lambda_cid13_p5	lambda_cid14_p0	/jointset/ground_pelvis/pelvis_tilt/accel	/jointset/ground_pelvis/pelvis_tx/accel	/jointset/ground_pelvis/pelvis_ty/accel	/jointset/hip_l/hip_flexion_l/accel	/jointset/hip_l/hip_adduction_l/accel	/jointset/hip_l/hip_rotation_l/accel	/jointset/back/lumbar_extension/accel	/jointset/patellofemoral_l/patellar_flexion_l/accel	/jointset/knee_l/knee_flexion_l/accel	/jointset/knee_l/knee_adduction_l/accel	/jointset/knee_l/knee_rotation_l/accel	/jointset/ankle_l/ankle_angle_l/accel	/jointset/subtalar_l/subtalar_angle_l/accel	gamma_cid13_p0	gamma_cid13_p1	gamma_cid13_p2	gamma_cid13_p3	gamma_cid13_p4	gamma_cid13_p5	gamma_cid14_p0
0.5	-0.09445873588867711	-0.04345242645861155	0.8076380990353158	0.9278661509097792	-0.3304332291355256	-0.07916745372658719	-0.7931036185870292	0.9138898748134578	0.9138898748133433	-0.1068923435770383	-0.1744891225824011	0.1435938064304491	0.01048114859849577	-0.1280865506192027	-0.1600406097522368	-0.4091625931368171	1.580410182523886	-0.03077518923233315	0.5612099531559627	-0.8321048139432309	1.752312128439386	1.752312128439479	0.1414219803239842	-0.0001186828116216403	0.4191291484309767	0.1078588437989709	-0.2732078433875306	0.03180289076096664	-0.004437059214387793	-0.2474438049105635	0.0935807872389622	0.0360018507397838	0.3301102776301327	-14.55758994773615	-14.30863160043802	3.222647906043385	-9.877785223161476	-703.9106571481043	-65.90382379753359	-10.0594483966431	0.2737438809442511	0.6871253061580869	-0.1660297859024127	-1.561135027532452	0.3321859217490861	-0.5070143346623933	1.969946250561782	-1.456325243765069	-1.456325243765044	-0.2265053031741714	0.001550860682057237	-0.2379673334222377	0.3430542807754406	-2.390243157805477e-07	-1.528934743307123e-07	1.41146346221254e-06	1.314609743763454e-07	-2.624790838892923e-07	-8.863935278071013e-08	-2.040803837720872e-07
0.51	-0.0957257275760344	-0.04501845227108805	0.8035390894301079	0.9435898165864476	-0.330725191866694	-0.07357992219338885	-0.8013253193250777	0.9313374541234519	0.9313374541233728	-0.1054919108653506	-0.1744901536174064	0.1477721862170479	0.01157563370919732	-0.1252915807138185	-0.1531633169829129	-0.4105448691524071	1.564102346879562	-0.02762771525853434	0.5562288708959472	-0.8121510094859512	1.736954172003312	1.736954172003421	0.1386583346447232	-9.227126552020088e-05	0.4164786469086155	0.1110086720080351	-0.2793534624196225	0.03212673367143835	-0.004589626839085738	-0.2510827826390502	0.09272436180725122	0.03608068065602241	0.3363011254069823	-15.09383264349433	-14.1761444159921	3.118334889582262	-9.68189331995737	-708.4313578456045	-65.71747528068425	-9.351591897753927	0.2853820052372373	0.6882432106625974	-0.1102084882890983	-1.698728303158729	0.3042834140719219	-0.5039631705535826	2.020746170393616	-1.612925087678657	-1.612925087676159	-0.3022219764020043	0.002750993005868085	-0.2888137203250471	0.2963767711701529	-2.272525364703141e-07	-1.195591641720692e-07	1.380278052515348e-06	1.304548699160989e-07	-2.462558773102602e-07	-5.443050258857698e-08	-1.966070286696316e-07
0.52	-0.0969641678723593	-0.04651566276620264	0.7994290806689637	0.9591437798126174	-0.33098602880235	-0.06804426308256685	-0.8093449522931369	0.9486239750202548	0.9486239750202119	-0.1041193001656727	-0.174491007598666	0.1519220165566865	0.01270070303802909	-0.1223762724123615	-0.1462775462798583	-0.4113624243240705	1.546469692424188	-0.02455003012966766	0.5508354686806324	-0.7916912599453688	1.720100445801233	1.720100445801359	0.1358575779214636	-8.327206215102067e-05	0.4134192590389745	0.1139756874250288	-0.285499081451708	0.03245057658190731	-0.004742194463768007	-0.2547217603675372	0.09186793637553815	0.03615951057225691	0.342491973183838	-15.63248654815164	-14.04359101190455	3.014419189365316	-9.529692116608864	-713.019442879849	-65.58177427193939	-8.645564581287644	0.2978115601588108	0.6888208929042212	-0.05308561711708118	-1.82609878974239	0.318228152762666	-0.589478325722274	2.071135267222323	-1.755479196966053	-1.755479196966002	-0.2339275119739046	-0.001931607864384295	-0.3197446028781719	0.3064917223613406	-2.156771868607249e-07	-1.079039833423626e-07	1.333624974067446e-06	1.254710984350447e-07	-2.306928546644582e-07	-2.759449485097481e-08	-1.898602956025416e-07
0.53	-0.09817291211873896	-0.047944036639196	0.7953137181418634	0.9745150201182206	-0.3312163873575265	-0.06256456760064275	-0.8171576337213746	0.9657346985684768	0.9657346985684663	-0.1027747158398442	-0.1744918289811876	0.1560393088837075	0.01385460589315083	-0.1193564765492601	-0.1394017312750077	-0.411615557374281	1.527573621608001	-0.02153204664585351	0.5450434557762444	-0.770779367258642	1.701811498211252	1.701811498211381	0.1330572501415843	-7.907109404606738e-05	0.4099785216690107	0.1167769995692916	-0.2912847673677487	0.03271292568112939	-0.004851370580331888	-0.2584908217723473	0.09111384406265201	0.03604086935283427	0.3483205673535592	-16.13713158049721	-13.82095861127704	2.884408137261714	-9.305923287952137	-717.4198073914218	-65.31239554525222	-7.943182164951562	0.3064583065220147	0.6863109315283615	0.002706905620681491	-1.952099996864965	0.2918482676800709	-0.5832588368913192	2.111065035928027	-1.900480121515634	-1.900480121515201	-0.3033885868645944	0.002145407682462524	-0.3653378485322333	0.2626311128473002	-2.058374795992091e-07	-1.026865349996581e-07	1.291065176048253e-06	1.205885227118819e-07	-2.175907858435502e-07	-3.767023761411623e-09	-1.844605740318045e-07
